<svg version="1.1" xmlns="http://www.w3.org/2000/svg" viewBox="0 0 250 250"><desc>Created with Snap</desc><defs></defs><g transform="matrix(0.055,0,0,0.055,16.3362,139.7026)"><g><g transform="matrix(1.024,0,0,-1.024,0,0)"><path d="M497 52L522 52Q545 52 545 26Q545 0 522 0L412 0Q388 0 388 26Q388 52 412 52L435 52L406 143L139 143L111 52L135 52Q159 52 159 26Q159 0 135 0L34 0Q10 0 10 26Q10 52 34 52L59 52L225 585L185 585Q162 585 162 611Q162 638 185 638L288 638Q310 638 315 624L497 52ZM272 581L152 191L394 191L272 581ZM881 332Q877 372 845 409Q813 446 765 446Q718 446 687 411Q656 376 644 332L881 332ZM776 -10Q685 -10 630 61Q575 132 575 242Q575 352 627 421Q680 490 766 490Q810 490 845 470Q880 451 899 422Q939 363 939 310Q939 282 913 282L633 282Q631 269 631 245Q631 153 672 94Q714 35 776 35Q803 35 825 49Q847 64 856 77Q865 91 876 114Q888 137 908 137Q938 137 938 110Q938 75 893 32Q849 -10 776 -10ZM1199 435L1067 435L1067 52L1086 52Q1098 52 1104 44Q1111 37 1111 26Q1111 0 1086 0L991 0Q965 0 965 26Q965 52 991 52L1011 52L1011 428L991 428Q978 428 971 436Q964 444 964 454Q964 465 971 472Q978 480 991 480L1176 480Q1227 480 1253 458Q1279 437 1279 404Q1279 387 1271 373Q1263 360 1245 360Q1227 360 1212 376Q1198 393 1197 411Q1197 430 1199 435ZM1299 241Q1299 349 1360 418Q1422 488 1526 488Q1631 488 1692 419Q1754 350 1754 242Q1754 135 1693 64Q1632 -6 1525 -6Q1419 -6 1359 64Q1299 134 1299 241ZM1404 99Q1453 41 1526 41Q1599 41 1648 98Q1698 156 1698 241Q1698 326 1648 383Q1598 441 1526 441Q1454 441 1404 384Q1355 327 1355 242Q1355 157 1404 99ZM1779 143Q1779 177 1797 198Q1815 220 1833 220Q1852 220 1862 207Q1873 194 1873 176Q1873 139 1846 117Q1857 74 1891 53Q1926 33 1968 33Q2030 33 2066 75Q2103 117 2103 169Q2103 222 2063 260Q2033 287 1986 318L1935 351Q1880 386 1851 423Q1822 461 1822 516Q1822 572 1864 610Q1906 649 1963 649Q2021 649 2060 623Q2099 597 2099 560Q2099 542 2088 531Q2078 521 2058 521Q2038 521 2019 538Q2001 555 2001 569Q2001 583 2004 592Q1995 609 1962 609Q1929 609 1903 583Q1878 557 1878 525Q1878 473 1972 411L2023 377Q2056 354 2072 341Q2089 329 2114 303Q2162 253 2162 171Q2162 89 2105 39Q2048 -11 1970 -11Q1892 -11 1835 36Q1779 84 1779 143ZM2224 -75L2255 -75L2255 428L2218 428Q2209 428 2203 436Q2197 444 2197 454Q2197 464 2203 472Q2209 480 2218 480L2292 480Q2304 480 2307 476Q2310 473 2310 462L2310 401Q2331 437 2369 459Q2407 482 2450 482Q2534 482 2582 415Q2630 349 2630 242Q2630 136 2581 67Q2533 -2 2448 -2Q2405 -2 2367 19Q2329 41 2311 73L2311 -75L2341 -75Q2352 -75 2359 -82Q2366 -89 2366 -100Q2366 -127 2341 -127L2224 -127Q2200 -127 2200 -100Q2200 -89 2207 -82Q2214 -75 2224 -75ZM2574 257Q2574 319 2543 378Q2512 437 2446 437Q2380 437 2343 385Q2307 333 2307 242Q2307 152 2343 97Q2380 43 2446 43Q2494 43 2524 77Q2554 111 2564 153Q2574 195 2574 257ZM2838 492Q2924 492 2971 436Q3019 380 3019 293Q3019 155 3029 106Q3039 58 3067 38Q3084 30 3084 16Q3084 -10 3060 -10Q3036 -10 3014 12Q2993 35 2980 68Q2963 35 2925 12Q2888 -10 2836 -10Q2760 -10 2712 37Q2665 85 2665 158Q2665 232 2715 284Q2765 336 2839 336Q2914 336 2964 287Q2964 357 2934 404Q2904 452 2842 452Q2780 452 2764 418Q2773 397 2773 383Q2773 369 2761 353Q2749 337 2731 337Q2714 337 2704 352Q2694 367 2694 387Q2694 429 2735 460Q2777 492 2838 492ZM2720 163Q2720 108 2757 71Q2794 34 2845 34Q2897 34 2932 69Q2967 105 2967 156L2967 165Q2967 219 2931 254Q2895 289 2842 289Q2790 289 2755 253Q2720 218 2720 163ZM3430 137Q3448 137 3456 128Q3464 120 3464 110Q3464 75 3419 32Q3375 -10 3304 -10Q3214 -10 3159 61Q3104 133 3104 241Q3104 349 3157 419Q3210 490 3292 490Q3337 490 3371 468Q3405 447 3405 412Q3405 394 3395 382Q3386 370 3368 370Q3350 370 3336 390Q3322 411 3321 438Q3305 445 3293 445Q3238 445 3199 388Q3160 332 3160 242Q3160 153 3201 94Q3243 36 3304 36Q3365 36 3401 113Q3412 137 3430 137ZM3790 332Q3786 372 3754 409Q3722 446 3674 446Q3627 446 3596 411Q3565 376 3553 332L3790 332ZM3685 -10Q3594 -10 3539 61Q3484 132 3484 242Q3484 352 3536 421Q3589 490 3675 490Q3719 490 3754 470Q3789 451 3808 422Q3848 363 3848 310Q3848 282 3822 282L3542 282Q3540 269 3540 245Q3540 153 3581 94Q3623 35 3685 35Q3712 35 3734 49Q3756 64 3765 77Q3774 91 3785 114Q3797 137 3817 137Q3847 137 3847 110Q3847 75 3802 32Q3758 -10 3685 -10Z" fill="#76528b" style=""></path></g></g></g></svg>